# xmcd
#
# Track frame offsets: 
#        182
#        21117
#        45720
#        66117
#        88985
#        114217
#        132717
#        155387
#
# Disc length: 2388 seconds
#
# Revision: 2
# Processed by: cddbd v1.5.2PL0 Copyright (c) Steve Scherf et al.
# Submitted via: ExactAudioCopy v0.95b4
#
DISCID=68095208
DTITLE=Teddy Pendergrass - TP
DYEAR=1979
DGENRE=
TTITLE0=Is It Still Good To You
TTITLE1=Take Me In Your Arms Tonight
TTITLE2=I Just Called To Say
TTITLE3=Can't We Try
TTITLE4=Feel The Fire
TTITLE5=Girl You Know
TTITLE6=Love TKO
TTITLE7=Let Me Love You
EXTD=
EXTT0=
EXTT1=
EXTT2=
EXTT3=
EXTT4=
EXTT5=
EXTT6=
EXTT7=
PLAYORDER=
